<svg width="1204" height="1476" viewBox="0 0 1204 1476" fill="none" xmlns="http://www.w3.org/2000/svg">
<g clip-path="url(#clip0)">
<path d="M476.5 215.496V2.00317C476.5 0.901886 477.423 0.00754391 478.524 0.00460836C716.256 -0.629083 817.669 64.056 984.565 215.734C985.241 216.349 984.832 217.496 983.918 217.496H804.251C803.249 217.496 802.403 216.758 802.261 215.766C800.098 200.692 794.635 177.536 772.5 152.996C739.818 116.762 675 102.996 623 142.496C583.231 176.491 583.864 217.496 583 217.496C542.989 217.496 518.511 217.496 478.5 217.496C477.395 217.496 476.5 216.6 476.5 215.496Z" fill="white"/>
<path d="M926.967 486.164L480.264 483.388C479.164 483.381 478.276 482.488 478.276 481.388C478.276 481.388 478.276 274.573 478.276 273.468C478.276 272.364 479.172 271.468 480.276 271.468C480.276 271.468 589.449 271.468 590.25 271.468C591.051 271.468 591.779 271.958 592.101 272.691C614.764 324.244 663.273 339.984 698 338.496C736.495 338.496 776.451 310.729 793.127 272.96C793.207 272.779 793.312 272.61 793.45 272.468C793.794 272.118 794.511 271.468 795.098 271.468C795.098 271.468 1028.78 271.468 1029.29 271.468C1029.8 271.468 1030.29 271.667 1030.66 272.018C1055.33 295.395 1070.04 315.014 1094.18 355.116C1125.02 411.282 1140.23 443.035 1163.85 500.105C1183.34 562.746 1191.72 598.111 1200.08 661.824C1205.54 729.031 1205.07 764.159 1200.08 823.543C1198.38 843.309 1195.36 876.52 1191.72 890.461C1153 1038.88 1118.53 1101.14 1049.59 1199.96C1008.9 1247.89 983.809 1271.25 938.115 1311.49C873.726 1362.76 834.208 1386.77 756.966 1420.23C676.838 1450.81 630.777 1461.3 545.162 1473.21L483.15 1475.9C482.013 1475.95 481.063 1475.05 481.063 1473.91V1271.59C481.063 1270.51 481.93 1269.63 483.003 1269.59C545.389 1267.02 578.61 1261.03 634.343 1244.57C746.665 1200.81 797.878 1164.77 874.016 1085.64C943.427 990.92 972.957 930.211 996.639 798.449C999.596 758.466 1000.49 735.121 996.639 686.919C984.837 605.239 971.644 560.845 926.967 486.164Z" fill="white"/>
<path d="M317.706 519.612C350.819 494.713 373.939 486.198 423.409 483.478C424.472 483.419 425.325 482.541 425.325 481.476V273.552C425.325 272.415 424.379 271.506 423.244 271.564C403.88 272.546 383.117 276.083 371 277.996C331.362 284.251 278.667 303.199 269.5 307.996C250.5 317.937 204.504 336.128 152 388.496C117.389 419.406 100.582 442.473 77 476.496C47.3691 529.23 29.8033 561.443 16.5 611.996C6.5 649.996 4.75951 668.996 1.71703 706.436C-0.644011 735.491 -0.499536 751.319 1.71703 778.931C4.17998 802.067 6.04599 814.875 10.0777 837.485C33.0736 927.956 57.8436 980.04 103.5 1034.5C150.401 1091.66 175.118 1110.8 230.5 1149.5C324.905 1200.29 379.588 1209.48 481.063 1211.11C535.878 1209.32 565.764 1204.37 617.621 1188.81C711.689 1150 755.551 1119.46 818.278 1049.39C891.709 957.523 918.089 900.796 938.115 790.084C941.478 753.564 941.511 732.799 938.115 695.283C933.435 663.339 929.93 645.604 921.393 614.424C911.64 585.272 904.998 568.837 891.286 540.283C890.954 539.59 890.249 539.141 889.48 539.141H480.276C479.172 539.141 478.276 540.036 478.276 541.141V757.413C478.276 758.518 479.172 759.413 480.276 759.413H724.471C725.511 759.413 726.378 760.216 726.46 761.253C728.407 785.866 727.047 799.803 720.737 823.543C707.806 860.06 697.487 879.014 673.359 909.979C642.171 945.654 622.671 962.176 584.178 985.262C538.49 1003.43 511.056 1007.8 458.768 1004.78C407.391 1001.48 380.493 993.696 336.145 968.533C285.893 937.671 262.633 913.956 230.243 859.791C209.4 807.499 204.416 777.594 207.947 723.166C212.737 666.526 219.667 637.814 249.751 592.118C272.143 560.845 284.169 544.829 317.706 519.612Z" fill="#666666"/>
</g>
<defs>
<clipPath id="clip0">
<rect width="1204" height="1476" fill="white"/>
</clipPath>
</defs>
</svg>
