<svg width="50" height="62" viewBox="0 0 50 62" fill="none" xmlns="http://www.w3.org/2000/svg">
<g clip-path="url(#clip0)">
<path d="M19.7882 8.94917V0.0831881C19.7882 0.0374537 19.8265 0.000313285 19.8723 0.000191377C29.7449 -0.0261247 33.9564 2.66013 40.8873 8.95905C40.9153 8.98459 40.8983 9.03223 40.8604 9.03223H33.3991C33.3575 9.03223 33.3224 9.00158 33.3165 8.96038C33.2267 8.33439 32.9998 7.37276 32.0806 6.35366C30.7233 4.84892 28.0316 4.27724 25.8721 5.91761C24.2206 7.32936 24.2468 9.03223 24.211 9.03223C22.5494 9.03223 21.5329 9.03223 19.8713 9.03223C19.8254 9.03223 19.7882 8.99502 19.7882 8.94917Z" fill="white"/>
<path d="M38.4952 20.1895L19.9445 20.0742C19.8988 20.0739 19.8619 20.0368 19.8619 19.9912C19.8619 19.9912 19.8619 11.4025 19.8619 11.3566C19.8619 11.3108 19.8991 11.2736 19.945 11.2736C19.945 11.2736 24.4787 11.2736 24.512 11.2736C24.5453 11.2736 24.5755 11.2939 24.5889 11.3243C25.53 13.4653 27.5445 14.1189 28.9867 14.0571C30.5853 14.0571 32.2446 12.904 32.9371 11.3355C32.9404 11.328 32.9448 11.321 32.9505 11.3151C32.9648 11.3006 32.9946 11.2736 33.019 11.2736C33.019 11.2736 42.7234 11.2736 42.7445 11.2736C42.7657 11.2736 42.7861 11.2818 42.8014 11.2964C43.8259 12.2672 44.4368 13.0819 45.4393 14.7473C46.72 17.0798 47.3517 18.3984 48.3326 20.7685C49.1419 23.3698 49.49 24.8385 49.8371 27.4844C50.0639 30.2753 50.0444 31.7342 49.8371 34.2003C49.7665 35.0211 49.6411 36.4003 49.49 36.9792C47.882 43.1428 46.4505 45.7284 43.5876 49.8322C41.8978 51.8226 40.8558 52.7927 38.9582 54.4638C36.2842 56.593 34.6431 57.5901 31.4354 58.9796C28.1079 60.2496 26.195 60.6852 22.6396 61.1798L20.0643 61.2915C20.0171 61.2936 19.9777 61.2562 19.9777 61.2089V52.8069C19.9777 52.762 20.0137 52.7255 20.0582 52.7238C22.649 52.6171 24.0286 52.3683 26.3431 51.6848C31.0076 49.8675 33.1344 48.3708 36.2963 45.0847C39.1788 41.1511 40.4051 38.63 41.3886 33.1581C41.5114 31.4977 41.5485 30.5283 41.3886 28.5265C40.8985 25.1345 40.3506 23.2909 38.4952 20.1895Z" fill="white"/>
<path d="M13.1938 21.5786C14.5689 20.5446 15.529 20.191 17.5834 20.078C17.6276 20.0756 17.663 20.0391 17.663 19.9949V11.3601C17.663 11.3129 17.6237 11.2752 17.5766 11.2776C16.7724 11.3184 15.9102 11.4652 15.407 11.5447C13.7609 11.8044 11.5726 12.5913 11.1919 12.7905C10.4028 13.2034 8.49269 13.9588 6.31229 16.1336C4.87496 17.4172 4.17699 18.3751 3.19767 19.7881C1.96716 21.978 1.23768 23.3158 0.685216 25.4151C0.269934 26.9932 0.197654 27.7823 0.0713052 29.3371C-0.0267446 30.5437 -0.0207448 31.201 0.0713052 32.3477C0.173587 33.3085 0.251079 33.8404 0.418509 34.7793C1.37349 38.5364 2.40214 40.6994 4.29817 42.961C6.24589 45.3348 7.27234 46.1296 9.57226 47.7368C13.4927 49.846 15.7636 50.2276 19.9777 50.2953C22.2541 50.221 23.4952 50.0154 25.6487 49.3692C29.5552 47.7575 31.3767 46.4893 33.9816 43.5794C37.0311 39.7643 38.1266 37.4085 38.9583 32.8108C39.0979 31.2942 39.0993 30.4319 38.9583 28.8739C38.7639 27.5473 38.6184 26.8108 38.2638 25.516C37.8588 24.3053 37.583 23.6228 37.0135 22.437C36.9998 22.4082 36.9705 22.3896 36.9385 22.3896H19.945C19.8992 22.3896 19.862 22.4268 19.862 22.4727V31.4541C19.862 31.4999 19.8992 31.5371 19.945 31.5371H30.086C30.1292 31.5371 30.1652 31.5705 30.1686 31.6135C30.2495 32.6357 30.193 33.2144 29.9309 34.2003C29.3939 35.7168 28.9654 36.5039 27.9634 37.7899C26.6682 39.2714 25.8584 39.9575 24.2599 40.9162C22.3625 41.6707 21.2233 41.8522 19.0518 41.7268C16.9182 41.5898 15.8012 41.2665 13.9595 40.2215C11.8726 38.9399 10.9067 37.955 9.56159 35.7056C8.69601 33.534 8.48904 32.2921 8.63567 30.0318C8.83459 27.6797 9.12238 26.4873 10.3717 24.5896C11.3016 23.2909 11.801 22.6258 13.1938 21.5786Z" fill="#666666"/>
</g>
<defs>
<clipPath id="clip0">
<rect width="50" height="61.2957" fill="white"/>
</clipPath>
</defs>
</svg>
